<svg xmlns="http://www.w3.org/2000/svg" xmlns:xlink="http://www.w3.org/1999/xlink" width="800" zoomAndPan="magnify" viewBox="0 0 600 599.999999" height="800" preserveAspectRatio="xMidYMid meet" version="1.2"><g id="7b268bfd9a"><path style=" stroke:none;fill-rule:nonzero;fill:#333333;fill-opacity:1;" d="M 571.695312 259.625 C 570.878906 252.789062 570.136719 245.867188 568.746094 239.121094 C 568.117188 236.0625 567.289062 233.042969 566.113281 230.144531 C 565 227.402344 563.691406 223.734375 560.539062 222.816406 C 557.191406 221.839844 554.542969 224.457031 552.121094 226.34375 C 549.535156 228.363281 546.988281 230.425781 544.472656 232.527344 C 539.53125 236.664062 534.730469 240.96875 530.078125 245.429688 C 519.429688 255.628906 509.636719 266.660156 500.636719 278.335938 C 499.628906 279.648438 500.4375 281.765625 501.738281 282.527344 C 503.054688 283.296875 504.378906 282.925781 505.371094 282.019531 C 505.890625 282.53125 506.59375 282.847656 507.425781 282.804688 C 511.242188 282.601562 515.066406 282.699219 518.859375 283.132812 C 518.765625 285.542969 518.671875 287.949219 518.582031 290.359375 C 518.488281 292.777344 521.222656 294.042969 523.1875 293.003906 C 526.539062 291.230469 531.140625 293.667969 532.285156 297.109375 C 533.085938 299.511719 531.769531 302.214844 531.230469 304.535156 C 530.539062 307.507812 530.394531 310.554688 532.132812 313.207031 C 533.273438 314.957031 535.394531 315.140625 536.941406 313.828125 C 539.84375 311.363281 544.597656 312.453125 547.046875 315.023438 C 550.34375 318.480469 550.175781 323.835938 548.640625 328.03125 C 547.503906 331.140625 551.660156 332.832031 553.757812 331.011719 C 574.125 313.363281 574.640625 284.28125 571.695312 259.625 Z M 551.441406 241.472656 C 551.527344 244.183594 551.613281 246.894531 551.667969 249.605469 C 551.558594 249.566406 551.441406 249.546875 551.324219 249.519531 C 551.335938 248.558594 551.007812 247.679688 550.171875 247.035156 C 549.972656 246.882812 549.738281 246.753906 549.484375 246.644531 C 549.191406 245.863281 548.859375 245.089844 548.484375 244.332031 C 549.46875 243.378906 550.453125 242.425781 551.441406 241.472656 Z M 545.695312 263.996094 C 544.890625 263.945312 544.089844 264.191406 543.496094 264.753906 C 543.511719 264.609375 543.53125 264.46875 543.550781 264.324219 C 544.019531 264.199219 544.460938 263.960938 544.804688 263.558594 C 545.101562 263.214844 545.382812 262.855469 545.664062 262.496094 C 545.675781 262.996094 545.683594 263.496094 545.695312 263.996094 Z M 551.824219 260.011719 C 551.828125 261.015625 551.8125 262.015625 551.816406 263.015625 C 551.808594 263.019531 551.800781 263.015625 551.796875 263.019531 C 551.789062 262.601562 551.78125 262.1875 551.769531 261.773438 C 551.722656 259.679688 551.621094 257.582031 551.414062 255.503906 C 551.453125 255.492188 551.496094 255.46875 551.535156 255.457031 C 551.609375 255.4375 551.679688 255.398438 551.753906 255.371094 C 551.773438 256.917969 551.8125 258.464844 551.824219 260.011719 Z M 536.765625 276.109375 C 535.765625 271.667969 535.515625 267.15625 536.011719 262.691406 C 536.476562 263.808594 536.855469 264.957031 537.144531 266.128906 C 536.828125 269.445312 536.710938 272.777344 536.765625 276.109375 Z M 526.5625 268.753906 C 526.609375 268.710938 526.621094 268.714844 526.5625 268.753906 Z M 524.914062 269.1875 C 524.859375 269.179688 524.863281 269.167969 524.914062 269.1875 Z M 558.980469 272.074219 C 559.027344 275.703125 558.925781 279.394531 558.488281 283.015625 C 558.335938 280.882812 558.085938 278.753906 557.769531 276.636719 C 557.789062 276.464844 557.8125 276.292969 557.824219 276.121094 C 558.15625 271.804688 557.964844 267.390625 557.957031 263.066406 C 557.957031 262.636719 557.945312 262.210938 557.945312 261.785156 C 558.214844 262.792969 558.472656 263.808594 558.730469 264.820312 C 558.855469 267.234375 558.949219 269.652344 558.980469 272.074219 Z M 538.894531 255.296875 C 538.667969 254.949219 538.425781 254.617188 538.1875 254.277344 C 538.589844 253.886719 538.996094 253.496094 539.398438 253.105469 C 539.21875 253.832031 539.058594 254.5625 538.894531 255.296875 Z M 529.679688 265.390625 C 529.222656 264.855469 528.726562 264.363281 528.164062 263.964844 C 528.738281 263.40625 529.316406 262.847656 529.894531 262.289062 C 529.789062 263.320312 529.71875 264.351562 529.679688 265.390625 Z M 524.980469 279.710938 C 524.851562 279.238281 524.597656 278.773438 524.261719 278.386719 C 524.816406 278.527344 525.371094 278.679688 525.910156 278.855469 C 525.578125 279.125 525.265625 279.410156 524.980469 279.710938 Z M 551.910156 311.273438 C 551.804688 311.148438 551.703125 311.023438 551.589844 310.902344 C 551.699219 310.816406 551.804688 310.730469 551.914062 310.648438 C 551.90625 310.855469 551.914062 311.0625 551.910156 311.273438 Z M 543.976562 306.289062 C 544.09375 306.472656 544.230469 306.640625 544.378906 306.800781 C 544.058594 306.726562 543.738281 306.664062 543.414062 306.609375 C 543.605469 306.507812 543.796875 306.40625 543.976562 306.289062 Z M 555.367188 318.332031 C 555.804688 318.488281 556.269531 318.550781 556.738281 318.5 C 556.386719 319.007812 556.023438 319.507812 555.648438 320 C 555.582031 319.4375 555.488281 318.882812 555.367188 318.332031 Z M 558.8125 228.964844 C 558.757812 228.921875 558.707031 228.84375 558.660156 228.683594 C 558.6875 228.78125 558.753906 228.867188 558.820312 228.957031 C 558.851562 228.917969 558.890625 228.878906 558.917969 228.839844 C 559.3125 228.289062 559.082031 229.132812 558.832031 228.976562 C 558.890625 229.054688 558.949219 229.136719 558.972656 229.226562 C 559.152344 229.910156 559.695312 230.625 559.988281 231.277344 C 561.152344 233.878906 561.929688 236.660156 562.558594 239.4375 C 563.917969 245.453125 564.582031 251.640625 565.34375 257.753906 C 566.015625 263.152344 566.59375 268.632812 566.875 274.121094 C 566.363281 270.847656 565.675781 267.609375 564.882812 264.394531 C 564.480469 256.929688 563.585938 249.472656 562.347656 242.136719 C 561.90625 239.507812 561.644531 236.609375 560.8125 234.074219 C 560.058594 231.773438 557.660156 231.21875 555.753906 232.054688 C 555.554688 231.925781 555.347656 231.820312 555.128906 231.734375 C 555.394531 231.523438 555.652344 231.304688 555.917969 231.09375 C 556.707031 230.476562 558.152344 229.753906 558.8125 228.964844 Z M 104.160156 209.648438 C 83.878906 203.242188 62.800781 198.757812 41.605469 196.847656 C 33.359375 196.105469 24.914062 195.640625 16.671875 196.6875 C 16.410156 196.722656 16.160156 196.785156 15.914062 196.859375 C 15.222656 197.003906 14.59375 197.386719 14.15625 198.035156 C 14.148438 198.046875 14.144531 198.054688 14.136719 198.066406 C 14.0625 198.175781 13.992188 198.289062 13.929688 198.417969 C 13.867188 198.539062 13.816406 198.671875 13.773438 198.808594 C 13.757812 198.851562 13.734375 198.890625 13.71875 198.9375 C 7 221.828125 3.019531 245.519531 1.863281 269.347656 C 1.289062 281.125 1.417969 292.9375 2.25 304.699219 C 2.925781 314.261719 3.902344 323.582031 7.003906 332.691406 C 10.019531 341.539062 14.210938 351.539062 21.480469 357.769531 C 24.457031 360.324219 28.808594 356.011719 25.8125 353.441406 C 19.847656 348.328125 16.300781 340.363281 13.648438 333.140625 C 12.210938 329.234375 11.007812 325.21875 10.171875 321.136719 C 9.210938 316.449219 8.90625 311.621094 8.53125 306.859375 C 6.757812 284.113281 7.578125 261.121094 11.101562 238.578125 C 13 226.414062 15.691406 214.390625 19.078125 202.554688 C 25.320312 201.984375 31.65625 202.222656 37.894531 202.671875 C 47.253906 203.339844 56.558594 204.664062 65.777344 206.382812 C 87.265625 210.394531 108.664062 216.40625 128.636719 225.359375 C 139.117188 230.058594 149.425781 235.589844 158.503906 242.675781 C 159.808594 243.691406 161.566406 243.945312 162.835938 242.675781 C 163.894531 241.617188 164.148438 239.367188 162.835938 238.34375 C 145.585938 224.882812 124.890625 216.199219 104.160156 209.648438 Z M 74.644531 261.269531 C 66.824219 252.925781 58.140625 245.398438 49.089844 238.421875 C 45.011719 235.28125 40.84375 232.25 36.511719 229.464844 C 34.078125 227.902344 31.792969 230.316406 32.027344 232.558594 C 31.785156 232.878906 31.597656 233.277344 31.496094 233.769531 C 25.832031 260.789062 20.277344 290.125 33.277344 315.988281 C 36.417969 322.226562 40.660156 327.941406 45.863281 332.609375 C 47.253906 333.859375 49.71875 333.828125 50.671875 331.988281 C 51.808594 329.800781 51.863281 327.660156 51.503906 325.265625 C 51.257812 323.636719 50.507812 321.621094 51.324219 320.058594 C 53.363281 316.160156 59.425781 317.773438 62.671875 318.535156 C 64.609375 318.992188 66.539062 317.628906 66.550781 315.582031 C 66.574219 311.382812 64.792969 307.386719 64.933594 303.207031 C 64.976562 301.953125 65.253906 300.402344 66.238281 299.519531 C 66.855469 298.96875 68.191406 298.460938 68.882812 299.09375 C 70.96875 301 75.121094 299.167969 74 296.113281 C 73.054688 293.527344 74.695312 290.941406 77.074219 289.796875 C 80.417969 288.1875 84.476562 289.1875 87.832031 290.191406 C 89.027344 290.550781 90.007812 290.203125 90.667969 289.527344 C 91.558594 288.890625 92.066406 287.804688 91.597656 286.425781 C 88.34375 276.808594 81.488281 268.574219 74.644531 261.269531 Z M 45.214844 319.023438 C 45.167969 318.960938 45.125 318.902344 45.078125 318.839844 C 45.019531 318.757812 44.964844 318.675781 44.90625 318.589844 C 45.078125 318.550781 45.238281 318.496094 45.398438 318.441406 C 45.332031 318.632812 45.269531 318.828125 45.214844 319.023438 Z M 42.398438 276.015625 C 41.695312 275.910156 40.964844 276.027344 40.339844 276.335938 C 40.246094 274.535156 40.152344 272.734375 40.058594 270.933594 C 40.859375 272.617188 41.636719 274.3125 42.398438 276.015625 Z M 45.179688 253.480469 C 45.167969 253.453125 45.152344 253.425781 45.136719 253.394531 C 45.195312 253.335938 45.269531 253.289062 45.332031 253.234375 C 45.277344 253.3125 45.230469 253.398438 45.179688 253.480469 Z M 50.925781 306.167969 C 51.355469 306.25 51.800781 306.226562 52.242188 306.066406 C 52.578125 306.492188 52.921875 306.910156 53.273438 307.328125 C 52.449219 307.414062 51.621094 307.503906 50.796875 307.59375 C 50.847656 307.117188 50.886719 306.640625 50.925781 306.167969 Z M 71.945312 277.21875 C 70.511719 275.992188 69.082031 274.765625 67.671875 273.511719 C 67.578125 272.953125 67.332031 272.421875 66.875 271.964844 C 66.417969 271.507812 65.730469 271.1875 65.023438 271.085938 C 64.96875 271.035156 64.914062 270.988281 64.859375 270.9375 C 65.085938 270.65625 65.257812 270.359375 65.363281 270.050781 C 66.757812 271.710938 68.175781 273.351562 69.535156 275.042969 C 70.195312 275.859375 71.359375 276.0625 72.371094 275.824219 C 72.683594 276.128906 73 276.429688 73.308594 276.738281 C 73.375 276.804688 73.453125 276.878906 73.539062 276.957031 C 73.003906 277.015625 72.472656 277.101562 71.945312 277.21875 Z M 48.960938 251.898438 C 48.964844 252.039062 48.980469 252.175781 49.003906 252.3125 C 48.203125 251.921875 47.277344 251.878906 46.390625 252.328125 C 47.003906 251.625 47.1875 250.753906 47.050781 249.925781 C 47.695312 250.578125 48.320312 251.242188 48.960938 251.898438 Z M 43.035156 247.445312 C 42.9375 246.886719 42.875 246.324219 42.835938 245.761719 C 43.332031 246.242188 43.839844 246.714844 44.335938 247.199219 C 43.921875 247.167969 43.484375 247.246094 43.035156 247.445312 Z M 35.320312 245.558594 C 35.535156 246.511719 35.75 247.46875 35.96875 248.421875 C 35.414062 248.695312 34.9375 249.097656 34.546875 249.589844 C 34.800781 248.242188 35.054688 246.898438 35.320312 245.558594 Z M 33.15625 257.6875 C 33.164062 257.804688 33.171875 257.921875 33.175781 258.035156 C 33.128906 258.160156 33.089844 258.289062 33.042969 258.414062 C 33.078125 258.171875 33.121094 257.929688 33.15625 257.6875 Z M 60.007812 311.28125 C 60.035156 311.457031 60.0625 311.636719 60.09375 311.8125 C 59.960938 311.792969 59.828125 311.777344 59.695312 311.761719 C 59.816406 311.613281 59.917969 311.453125 60.007812 311.28125 Z M 59.285156 299.828125 C 59.285156 299.824219 59.285156 299.820312 59.285156 299.8125 C 59.285156 299.8125 59.289062 299.8125 59.292969 299.808594 C 59.292969 299.816406 59.289062 299.824219 59.285156 299.828125 Z M 79.871094 282.90625 C 80.460938 282.503906 80.929688 281.921875 81.09375 281.222656 C 81.253906 280.535156 81.289062 279.886719 81.265625 279.253906 C 82.058594 280.476562 82.8125 281.730469 83.496094 283.019531 C 82.285156 282.882812 81.070312 282.835938 79.871094 282.90625 Z M 594.484375 238.375 C 592.46875 225.046875 589.535156 211.871094 585.738281 198.9375 C 585.726562 198.90625 585.710938 198.878906 585.699219 198.847656 C 585.648438 198.679688 585.585938 198.523438 585.507812 198.375 C 585.46875 198.296875 585.421875 198.222656 585.378906 198.148438 C 585.339844 198.09375 585.304688 198.035156 585.265625 197.980469 C 584.832031 197.371094 584.226562 197.007812 583.5625 196.863281 C 583.3125 196.789062 583.054688 196.722656 582.785156 196.6875 C 575.632812 195.78125 568.328125 196.046875 561.160156 196.574219 C 551.3125 197.300781 541.507812 198.707031 531.804688 200.523438 C 509.679688 204.671875 487.796875 211.019531 467.253906 220.285156 C 456.414062 225.175781 446.011719 231.015625 436.621094 238.34375 C 435.316406 239.363281 435.554688 241.605469 436.621094 242.675781 C 437.910156 243.964844 439.644531 243.695312 440.953125 242.675781 C 457.523438 229.742188 477.789062 221.539062 497.695312 215.3125 C 517.339844 209.167969 537.75 204.742188 558.273438 202.933594 C 565.582031 202.289062 573.050781 201.882812 580.386719 202.5625 C 586.542969 224.089844 590.296875 246.261719 591.4375 268.628906 C 592.011719 279.921875 591.945312 291.25 591.230469 302.539062 C 590.636719 311.910156 589.828125 321.070312 586.894531 330.027344 C 584.1875 338.277344 580.398438 347.648438 573.644531 353.441406 C 570.648438 356.011719 575 360.324219 577.976562 357.773438 C 584.464844 352.207031 588.351562 343.628906 591.328125 335.8125 C 594.652344 327.074219 596.078125 318.300781 596.871094 309.019531 C 598.886719 285.472656 598.015625 261.738281 594.484375 238.375 Z M 478.238281 233.835938 C 477.472656 233.664062 476.546875 233.675781 475.878906 234.144531 C 473.277344 235.976562 470.675781 237.808594 468.074219 239.640625 C 467.410156 240.105469 466.890625 240.660156 466.667969 241.46875 C 466.464844 242.203125 466.554688 243.179688 466.976562 243.828125 C 467.398438 244.484375 468.023438 245.058594 468.804688 245.234375 C 469.570312 245.410156 470.5 245.398438 471.164062 244.925781 C 473.765625 243.097656 476.367188 241.265625 478.96875 239.433594 C 479.632812 238.964844 480.15625 238.410156 480.378906 237.605469 C 480.578125 236.871094 480.488281 235.894531 480.070312 235.246094 C 479.648438 234.589844 479.019531 234.015625 478.238281 233.835938 Z M 558.820312 228.957031 C 558.816406 228.957031 558.8125 228.960938 558.8125 228.964844 C 558.816406 228.96875 558.824219 228.972656 558.832031 228.976562 C 558.824219 228.972656 558.824219 228.960938 558.820312 228.957031 Z M 558.820312 228.957031 "/></g></svg>