<svg xmlns="http://www.w3.org/2000/svg" xmlns:xlink="http://www.w3.org/1999/xlink" width="800" zoomAndPan="magnify" viewBox="0 0 600 599.999999" height="800" preserveAspectRatio="xMidYMid meet" version="1.2"><defs><clipPath id="06bd16d5b4"><path d="M 113 163 L 525 163 L 525 275.976562 L 113 275.976562 Z M 113 163 "/></clipPath><clipPath id="171a95e453"><path d="M 0.328125 0.25 L 163 0.25 L 163 74.78125 L 0.328125 74.78125 Z M 0.328125 0.25 "/></clipPath><clipPath id="2e2a14405b"><rect x="0" width="163" y="0" height="76"/></clipPath><clipPath id="56fd60a8d9"><path d="M 0.390625 0.390625 L 153.953125 0.390625 L 153.953125 70.75 L 0.390625 70.75 Z M 0.390625 0.390625 "/></clipPath><clipPath id="4472754b5f"><rect x="0" width="154" y="0" height="71"/></clipPath></defs><g id="00e225a6a8"><g clip-rule="nonzero" clip-path="url(#06bd16d5b4)"><path style=" stroke:none;fill-rule:nonzero;fill:#F9FAFB;fill-opacity:1;" d="M 506.738281 206.84375 C 506.175781 202.132812 505.664062 197.359375 504.703125 192.707031 C 504.269531 190.597656 503.699219 188.515625 502.890625 186.515625 C 502.121094 184.628906 501.21875 182.097656 499.042969 181.460938 C 496.738281 180.789062 494.910156 182.59375 493.242188 183.898438 C 491.460938 185.289062 489.699219 186.710938 487.96875 188.160156 C 484.558594 191.011719 481.25 193.980469 478.039062 197.054688 C 470.699219 204.089844 463.945312 211.695312 457.742188 219.746094 C 457.046875 220.652344 457.605469 222.113281 458.5 222.636719 C 459.410156 223.167969 460.320312 222.910156 461.007812 222.285156 C 461.363281 222.636719 461.847656 222.855469 462.421875 222.828125 C 465.050781 222.6875 467.691406 222.753906 470.304688 223.054688 C 470.242188 224.714844 470.179688 226.375 470.113281 228.035156 C 470.050781 229.703125 471.9375 230.574219 473.289062 229.859375 C 475.601562 228.636719 478.773438 230.320312 479.566406 232.691406 C 480.117188 234.347656 479.207031 236.210938 478.835938 237.8125 C 478.359375 239.859375 478.261719 241.960938 479.457031 243.792969 C 480.246094 244.996094 481.707031 245.125 482.773438 244.21875 C 484.773438 242.519531 488.050781 243.269531 489.742188 245.042969 C 492.015625 247.425781 491.898438 251.117188 490.839844 254.011719 C 490.058594 256.15625 492.921875 257.320312 494.371094 256.066406 C 508.414062 243.898438 508.769531 223.84375 506.738281 206.84375 Z M 492.769531 194.328125 C 492.832031 196.199219 492.890625 198.066406 492.929688 199.933594 C 492.851562 199.910156 492.773438 199.894531 492.691406 199.875 C 492.699219 199.214844 492.472656 198.609375 491.898438 198.164062 C 491.761719 198.058594 491.597656 197.96875 491.421875 197.894531 C 491.222656 197.355469 490.992188 196.824219 490.734375 196.296875 C 491.410156 195.640625 492.089844 194.984375 492.769531 194.328125 Z M 488.808594 209.859375 C 488.253906 209.824219 487.703125 209.992188 487.292969 210.378906 C 487.304688 210.28125 487.316406 210.183594 487.332031 210.085938 C 487.65625 209.996094 487.957031 209.832031 488.195312 209.558594 C 488.402344 209.320312 488.59375 209.070312 488.789062 208.824219 C 488.796875 209.167969 488.800781 209.515625 488.808594 209.859375 Z M 493.035156 207.109375 C 493.039062 207.800781 493.027344 208.492188 493.03125 209.183594 C 493.027344 209.183594 493.019531 209.183594 493.015625 209.183594 C 493.011719 208.898438 493.007812 208.609375 493 208.324219 C 492.964844 206.882812 492.894531 205.4375 492.753906 204.003906 C 492.78125 203.992188 492.8125 203.976562 492.835938 203.972656 C 492.886719 203.957031 492.9375 203.929688 492.988281 203.910156 C 493 204.976562 493.027344 206.042969 493.035156 207.109375 Z M 482.652344 218.210938 C 481.964844 215.148438 481.792969 212.039062 482.132812 208.957031 C 482.453125 209.726562 482.714844 210.519531 482.914062 211.328125 C 482.695312 213.617188 482.613281 215.914062 482.652344 218.210938 Z M 475.617188 213.140625 C 475.648438 213.109375 475.660156 213.113281 475.617188 213.140625 Z M 474.480469 213.4375 C 474.445312 213.429688 474.445312 213.421875 474.480469 213.4375 Z M 497.96875 215.429688 C 498 217.929688 497.933594 220.476562 497.628906 222.972656 C 497.523438 221.5 497.355469 220.035156 497.136719 218.574219 C 497.148438 218.457031 497.164062 218.335938 497.175781 218.21875 C 497.402344 215.242188 497.269531 212.199219 497.265625 209.214844 C 497.265625 208.921875 497.257812 208.628906 497.257812 208.332031 C 497.441406 209.03125 497.621094 209.726562 497.796875 210.425781 C 497.886719 212.09375 497.949219 213.757812 497.96875 215.429688 Z M 484.121094 203.859375 C 483.964844 203.621094 483.796875 203.390625 483.632812 203.15625 C 483.910156 202.886719 484.191406 202.617188 484.46875 202.347656 C 484.34375 202.851562 484.234375 203.355469 484.121094 203.859375 Z M 477.765625 210.820312 C 477.449219 210.449219 477.109375 210.109375 476.71875 209.835938 C 477.117188 209.449219 477.515625 209.066406 477.914062 208.679688 C 477.84375 209.390625 477.792969 210.105469 477.765625 210.820312 Z M 474.527344 220.695312 C 474.4375 220.367188 474.261719 220.046875 474.03125 219.78125 C 474.414062 219.878906 474.796875 219.980469 475.167969 220.101562 C 474.941406 220.292969 474.722656 220.488281 474.527344 220.695312 Z M 493.097656 242.457031 C 493.023438 242.371094 492.953125 242.285156 492.875 242.203125 C 492.949219 242.144531 493.023438 242.082031 493.097656 242.023438 C 493.09375 242.167969 493.097656 242.3125 493.097656 242.457031 Z M 487.625 239.019531 C 487.707031 239.148438 487.800781 239.265625 487.902344 239.371094 C 487.679688 239.320312 487.460938 239.277344 487.238281 239.242188 C 487.367188 239.171875 487.5 239.101562 487.625 239.019531 Z M 495.480469 247.324219 C 495.78125 247.433594 496.101562 247.476562 496.421875 247.441406 C 496.179688 247.789062 495.929688 248.132812 495.675781 248.472656 C 495.625 248.085938 495.5625 247.703125 495.480469 247.324219 Z M 497.855469 185.703125 C 497.816406 185.671875 497.78125 185.621094 497.75 185.507812 C 497.769531 185.578125 497.8125 185.636719 497.859375 185.695312 C 497.878906 185.671875 497.90625 185.644531 497.925781 185.617188 C 498.199219 185.238281 498.039062 185.820312 497.867188 185.710938 C 497.90625 185.765625 497.949219 185.820312 497.964844 185.882812 C 498.089844 186.355469 498.464844 186.847656 498.664062 187.296875 C 499.46875 189.089844 500.003906 191.011719 500.4375 192.921875 C 501.375 197.070312 501.832031 201.339844 502.355469 205.554688 C 502.820312 209.277344 503.21875 213.054688 503.414062 216.839844 C 503.0625 214.582031 502.585938 212.351562 502.042969 210.132812 C 501.761719 204.984375 501.144531 199.84375 500.292969 194.785156 C 499.988281 192.972656 499.808594 190.972656 499.234375 189.226562 C 498.714844 187.640625 497.058594 187.257812 495.746094 187.832031 C 495.609375 187.742188 495.464844 187.671875 495.3125 187.613281 C 495.496094 187.46875 495.675781 187.316406 495.859375 187.171875 C 496.402344 186.746094 497.398438 186.246094 497.855469 185.703125 Z M 184.359375 172.382812 C 170.375 167.964844 155.839844 164.875 141.226562 163.558594 C 135.542969 163.046875 129.714844 162.726562 124.035156 163.449219 C 123.855469 163.472656 123.679688 163.515625 123.511719 163.566406 C 123.035156 163.664062 122.601562 163.929688 122.296875 164.375 C 122.292969 164.382812 122.289062 164.390625 122.285156 164.398438 C 122.234375 164.472656 122.1875 164.550781 122.144531 164.640625 C 122.101562 164.726562 122.066406 164.816406 122.035156 164.910156 C 122.023438 164.941406 122.007812 164.964844 122 165 C 117.367188 180.78125 114.621094 197.117188 113.820312 213.550781 C 113.425781 221.671875 113.515625 229.8125 114.089844 237.925781 C 114.554688 244.519531 115.226562 250.945312 117.367188 257.226562 C 119.449219 263.328125 122.335938 270.21875 127.347656 274.519531 C 129.402344 276.28125 132.402344 273.304688 130.335938 271.53125 C 126.226562 268.007812 123.777344 262.515625 121.949219 257.535156 C 120.957031 254.839844 120.128906 252.074219 119.550781 249.257812 C 118.890625 246.027344 118.679688 242.695312 118.421875 239.414062 C 117.195312 223.730469 117.765625 207.875 120.191406 192.332031 C 121.5 183.945312 123.355469 175.652344 125.691406 167.492188 C 130 167.101562 134.367188 167.265625 138.667969 167.574219 C 145.121094 168.035156 151.535156 168.945312 157.894531 170.132812 C 172.710938 172.898438 187.464844 177.042969 201.238281 183.21875 C 208.464844 186.457031 215.570312 190.273438 221.832031 195.15625 C 222.730469 195.859375 223.941406 196.03125 224.816406 195.15625 C 225.546875 194.425781 225.722656 192.875 224.816406 192.171875 C 212.925781 182.886719 198.65625 176.898438 184.359375 172.382812 Z M 164.007812 207.976562 C 158.613281 202.222656 152.628906 197.035156 146.386719 192.226562 C 143.578125 190.058594 140.699219 187.96875 137.710938 186.046875 C 136.035156 184.96875 134.457031 186.636719 134.621094 188.183594 C 134.453125 188.402344 134.328125 188.675781 134.253906 189.015625 C 130.351562 207.648438 126.519531 227.875 135.484375 245.707031 C 137.648438 250.011719 140.574219 253.949219 144.164062 257.167969 C 145.121094 258.03125 146.820312 258.007812 147.476562 256.742188 C 148.261719 255.230469 148.300781 253.753906 148.050781 252.105469 C 147.882812 250.984375 147.363281 249.59375 147.925781 248.515625 C 149.335938 245.828125 153.511719 246.9375 155.753906 247.464844 C 157.085938 247.777344 158.417969 246.839844 158.425781 245.429688 C 158.445312 242.53125 157.214844 239.777344 157.3125 236.894531 C 157.339844 236.03125 157.53125 234.960938 158.210938 234.351562 C 158.636719 233.972656 159.558594 233.621094 160.035156 234.058594 C 161.472656 235.375 164.335938 234.109375 163.5625 232.003906 C 162.910156 230.222656 164.042969 228.4375 165.683594 227.648438 C 167.988281 226.539062 170.785156 227.226562 173.101562 227.921875 C 173.925781 228.167969 174.601562 227.929688 175.054688 227.460938 C 175.667969 227.023438 176.019531 226.273438 175.699219 225.324219 C 173.453125 218.691406 168.726562 213.015625 164.007812 207.976562 Z M 143.714844 247.800781 C 143.683594 247.757812 143.652344 247.71875 143.621094 247.675781 C 143.582031 247.617188 143.542969 247.558594 143.503906 247.503906 C 143.621094 247.476562 143.730469 247.4375 143.839844 247.398438 C 143.796875 247.53125 143.75 247.664062 143.714844 247.800781 Z M 141.773438 218.144531 C 141.289062 218.074219 140.785156 218.152344 140.355469 218.367188 C 140.289062 217.125 140.222656 215.882812 140.160156 214.640625 C 140.710938 215.804688 141.25 216.972656 141.773438 218.144531 Z M 143.691406 202.609375 C 143.683594 202.589844 143.671875 202.570312 143.660156 202.550781 C 143.703125 202.507812 143.753906 202.476562 143.796875 202.4375 C 143.757812 202.492188 143.726562 202.550781 143.691406 202.609375 Z M 147.652344 238.9375 C 147.949219 238.992188 148.257812 238.976562 148.558594 238.867188 C 148.792969 239.160156 149.03125 239.449219 149.273438 239.734375 C 148.703125 239.796875 148.132812 239.859375 147.5625 239.921875 C 147.597656 239.59375 147.625 239.265625 147.652344 238.9375 Z M 162.148438 218.976562 C 161.15625 218.132812 160.171875 217.285156 159.199219 216.417969 C 159.136719 216.035156 158.964844 215.667969 158.648438 215.351562 C 158.335938 215.039062 157.859375 214.816406 157.371094 214.746094 C 157.335938 214.710938 157.296875 214.679688 157.261719 214.644531 C 157.417969 214.449219 157.535156 214.246094 157.609375 214.03125 C 158.570312 215.179688 159.546875 216.308594 160.484375 217.476562 C 160.9375 218.039062 161.742188 218.175781 162.441406 218.015625 C 162.65625 218.222656 162.875 218.429688 163.085938 218.644531 C 163.132812 218.6875 163.1875 218.742188 163.242188 218.796875 C 162.875 218.835938 162.507812 218.894531 162.148438 218.976562 Z M 146.296875 201.515625 C 146.300781 201.613281 146.3125 201.707031 146.328125 201.800781 C 145.773438 201.53125 145.136719 201.503906 144.523438 201.8125 C 144.949219 201.328125 145.074219 200.726562 144.980469 200.15625 C 145.425781 200.605469 145.859375 201.066406 146.296875 201.515625 Z M 142.210938 198.445312 C 142.144531 198.058594 142.101562 197.671875 142.074219 197.285156 C 142.417969 197.617188 142.769531 197.941406 143.109375 198.277344 C 142.824219 198.253906 142.519531 198.308594 142.210938 198.445312 Z M 136.894531 197.144531 C 137.042969 197.804688 137.1875 198.460938 137.339844 199.121094 C 136.957031 199.308594 136.628906 199.585938 136.359375 199.925781 C 136.535156 198.996094 136.710938 198.070312 136.894531 197.144531 Z M 135.402344 205.507812 C 135.40625 205.589844 135.410156 205.667969 135.414062 205.75 C 135.382812 205.835938 135.355469 205.921875 135.320312 206.011719 C 135.347656 205.84375 135.375 205.675781 135.402344 205.507812 Z M 153.914062 242.464844 C 153.933594 242.585938 153.953125 242.707031 153.972656 242.828125 C 153.882812 242.816406 153.789062 242.804688 153.699219 242.792969 C 153.78125 242.691406 153.855469 242.582031 153.914062 242.464844 Z M 153.417969 234.566406 C 153.417969 234.5625 153.417969 234.558594 153.414062 234.554688 C 153.417969 234.554688 153.421875 234.554688 153.421875 234.554688 C 153.421875 234.558594 153.417969 234.5625 153.417969 234.566406 Z M 167.609375 222.898438 C 168.019531 222.621094 168.339844 222.21875 168.453125 221.734375 C 168.5625 221.261719 168.589844 220.8125 168.574219 220.378906 C 169.121094 221.222656 169.640625 222.085938 170.109375 222.976562 C 169.277344 222.882812 168.4375 222.847656 167.609375 222.898438 Z M 522.449219 192.191406 C 521.058594 183.003906 519.039062 173.917969 516.421875 165 C 516.414062 164.976562 516.402344 164.957031 516.394531 164.9375 C 516.359375 164.820312 516.316406 164.714844 516.261719 164.609375 C 516.234375 164.554688 516.203125 164.503906 516.171875 164.453125 C 516.148438 164.414062 516.121094 164.375 516.09375 164.339844 C 515.792969 163.917969 515.378906 163.667969 514.921875 163.570312 C 514.746094 163.515625 514.570312 163.472656 514.382812 163.449219 C 509.453125 162.820312 504.417969 163.003906 499.472656 163.371094 C 492.683594 163.871094 485.921875 164.839844 479.234375 166.09375 C 463.976562 168.953125 448.886719 173.328125 434.722656 179.71875 C 427.246094 183.09375 420.074219 187.117188 413.601562 192.171875 C 412.699219 192.871094 412.863281 194.421875 413.601562 195.15625 C 414.488281 196.046875 415.683594 195.859375 416.585938 195.15625 C 428.015625 186.238281 441.984375 180.582031 455.710938 176.289062 C 469.257812 172.050781 483.332031 169 497.484375 167.753906 C 502.523438 167.308594 507.671875 167.03125 512.730469 167.496094 C 516.976562 182.34375 519.5625 197.628906 520.347656 213.050781 C 520.746094 220.839844 520.699219 228.652344 520.207031 236.433594 C 519.796875 242.894531 519.242188 249.210938 517.21875 255.390625 C 515.351562 261.078125 512.738281 267.539062 508.082031 271.53125 C 506.015625 273.304688 509.015625 276.28125 511.070312 274.519531 C 515.542969 270.683594 518.222656 264.769531 520.273438 259.375 C 522.570312 253.351562 523.550781 247.304688 524.097656 240.902344 C 525.484375 224.664062 524.886719 208.300781 522.449219 192.191406 Z M 442.296875 189.0625 C 441.769531 188.941406 441.128906 188.953125 440.667969 189.277344 C 438.875 190.539062 437.082031 191.800781 435.289062 193.0625 C 434.832031 193.386719 434.472656 193.769531 434.316406 194.324219 C 434.179688 194.832031 434.242188 195.503906 434.53125 195.953125 C 434.820312 196.402344 435.253906 196.800781 435.792969 196.921875 C 436.320312 197.042969 436.960938 197.035156 437.417969 196.710938 C 439.214844 195.445312 441.007812 194.183594 442.800781 192.921875 C 443.257812 192.597656 443.617188 192.214844 443.769531 191.660156 C 443.910156 191.15625 443.847656 190.480469 443.558594 190.03125 C 443.269531 189.582031 442.835938 189.183594 442.296875 189.0625 Z M 497.859375 185.695312 C 497.855469 185.699219 497.855469 185.699219 497.855469 185.703125 C 497.859375 185.707031 497.863281 185.710938 497.867188 185.710938 C 497.863281 185.707031 497.863281 185.703125 497.859375 185.695312 Z M 497.859375 185.695312 "/></g><g transform="matrix(1,0,0,1,137,218)"><g clip-path="url(#2e2a14405b)"><g clip-rule="nonzero" clip-path="url(#171a95e453)"><path style=" stroke:none;fill-rule:nonzero;fill:#F9FAFB;fill-opacity:1;" d="M 57.234375 65.515625 C 56.527344 65.398438 56.113281 65.222656 55.992188 64.984375 C 55.816406 64.75 55.816406 64.394531 55.875 63.804688 C 55.875 63.570312 55.875 63.332031 55.875 63.15625 C 55.875 62.980469 55.875 62.742188 55.875 62.507812 C 55.875 62.269531 55.933594 61.859375 55.992188 61.386719 C 56.113281 59.027344 56.820312 54.421875 58.0625 47.519531 C 59.304688 40.613281 60.960938 33.179688 63.03125 25.09375 C 65.101562 17.007812 67.46875 9.808594 70.191406 3.496094 L 71.609375 2.078125 L 73.382812 2.90625 C 71.195312 3.316406 68.886719 4.851562 66.464844 7.449219 C 63.980469 10.046875 61.613281 13.171875 59.246094 16.773438 C 56.878906 20.371094 53.863281 25.390625 50.078125 31.703125 C 44.933594 40.378906 40.496094 47.398438 36.769531 52.828125 C 33.042969 58.199219 28.960938 62.863281 24.523438 66.699219 C 20.089844 70.53125 15.652344 72.480469 11.214844 72.480469 C 8.082031 72.480469 5.539062 71.714844 3.527344 70.238281 C 1.515625 68.761719 0.507812 66.757812 0.507812 64.277344 C 0.507812 62.210938 1.160156 60.679688 2.519531 59.558594 C 3.882812 58.4375 5.300781 57.90625 6.78125 57.90625 C 7.785156 57.90625 8.613281 58.082031 9.324219 58.496094 C 10.03125 58.90625 10.328125 59.320312 10.328125 59.734375 C 10.328125 59.96875 10.09375 60.324219 9.679688 60.738281 C 8.730469 61.742188 8.257812 62.863281 8.257812 64.101562 C 8.257812 65.339844 8.671875 66.34375 9.441406 67.109375 C 10.269531 67.878906 11.511719 68.289062 13.167969 68.289062 C 16.65625 68.289062 20.324219 66.460938 24.109375 62.800781 C 27.957031 59.144531 31.5625 54.71875 34.996094 49.582031 C 38.425781 44.449219 42.683594 37.664062 47.890625 29.222656 C 51.851562 22.4375 55.105469 17.1875 57.53125 13.46875 C 60.015625 9.691406 62.441406 6.5625 64.867188 4.027344 C 67.292969 1.488281 69.421875 0.191406 71.3125 0.191406 C 72.613281 0.191406 73.738281 0.605469 74.746094 1.371094 C 75.691406 2.195312 76.164062 3.140625 76.164062 4.320312 C 76.164062 5.148438 75.925781 6.03125 75.511719 7.035156 C 72.96875 12.761719 70.839844 18.78125 69.125 25.152344 C 67.410156 31.527344 65.988281 37.78125 64.808594 43.976562 C 64.097656 47.636719 63.566406 50.765625 63.152344 53.359375 C 62.261719 59.085938 61.199219 63.039062 59.957031 65.222656 C 58.65625 67.40625 57.292969 68.527344 55.816406 68.527344 C 54.871094 68.527344 54.160156 68.113281 53.566406 67.289062 C 53.035156 66.460938 52.738281 65.398438 52.738281 64.160156 C 52.738281 62.863281 53.332031 61.089844 54.457031 58.789062 C 55.578125 56.546875 56.941406 54.480469 58.359375 52.710938 C 59.839844 50.941406 60.902344 49.996094 61.554688 49.996094 Z M 88.824219 53.242188 C 88.824219 56.785156 89.355469 59.4375 90.480469 61.148438 C 91.542969 62.863281 92.902344 63.746094 94.441406 63.746094 C 95.683594 63.746094 96.75 63.273438 97.695312 62.269531 C 98.640625 61.269531 99.410156 60.207031 100 59.085938 C 100.179688 58.730469 100.414062 58.375 100.59375 58.082031 C 100.828125 57.785156 101.066406 57.667969 101.304688 57.667969 C 101.71875 57.667969 101.953125 58.082031 101.953125 58.964844 C 101.953125 60.148438 101.480469 61.503906 100.59375 63.097656 C 99.707031 64.691406 98.464844 65.988281 96.925781 67.109375 C 95.386719 68.171875 93.671875 68.761719 91.78125 68.761719 C 88.941406 68.761719 86.574219 67.582031 84.800781 65.28125 C 83.027344 62.980469 82.078125 59.378906 82.078125 54.601562 C 82.078125 41.5 87.582031 25.328125 98.582031 6.09375 L 99.054688 4.203125 L 101.953125 5.679688 C 97.929688 6.386719 92.964844 10.339844 87.046875 17.660156 C 81.132812 24.976562 75.75 32.527344 70.957031 40.320312 C 66.167969 48.109375 62.144531 54.894531 58.949219 60.738281 L 57.472656 57.3125 L 61.199219 51.175781 C 66.226562 42.738281 70.839844 35.242188 75.097656 28.632812 C 79.300781 22.085938 83.792969 16.066406 88.527344 10.695312 C 93.257812 5.324219 97.164062 2.609375 100.296875 2.609375 C 101.242188 2.609375 102.070312 2.964844 102.898438 3.730469 C 103.726562 4.5 104.082031 5.265625 104.082031 6.152344 C 104.082031 6.5625 103.964844 7.152344 103.667969 7.921875 C 103.375 8.6875 103.019531 9.515625 102.484375 10.457031 C 100.121094 15.0625 97.992188 19.429688 96.097656 23.617188 C 94.203125 27.808594 92.488281 32.589844 91.011719 37.898438 C 89.53125 43.210938 88.761719 48.34375 88.761719 53.183594 Z M 129.519531 20.492188 C 129.519531 23.207031 130.226562 25.507812 131.589844 27.335938 C 132.949219 29.164062 134.78125 30.582031 137.089844 31.585938 L 136.617188 33.53125 C 133.1875 33.652344 129.753906 34.59375 126.207031 36.304688 C 122.714844 38.015625 119.757812 40.4375 117.390625 43.503906 C 115.027344 46.574219 113.84375 50.054688 113.84375 53.949219 C 113.84375 57.019531 114.554688 59.675781 115.972656 62.035156 C 117.390625 64.394531 119.402344 66.226562 121.886719 67.523438 C 124.429688 68.820312 127.328125 69.472656 130.703125 69.472656 C 134.664062 69.472656 138.332031 68.761719 141.644531 67.40625 C 144.957031 66.046875 147.796875 64.335938 150.101562 62.390625 C 152.410156 60.382812 154.304688 58.375 155.722656 56.371094 C 156.019531 55.957031 156.371094 55.722656 156.726562 55.722656 C 156.964844 55.722656 157.140625 55.78125 157.261719 55.957031 C 157.378906 56.132812 157.4375 56.3125 157.4375 56.546875 C 157.4375 56.960938 157.320312 57.433594 157.082031 57.84375 C 155.484375 60.441406 153.414062 63.039062 150.929688 65.515625 C 148.445312 68.054688 145.195312 70.179688 141.230469 72.007812 C 137.265625 73.835938 132.652344 74.78125 127.507812 74.78125 C 123.367188 74.78125 119.640625 73.957031 116.386719 72.363281 C 113.132812 70.769531 110.648438 68.527344 108.816406 65.636719 C 107.039062 62.742188 106.09375 59.496094 106.09375 55.839844 C 106.09375 49.996094 108.105469 45.15625 112.1875 41.320312 C 116.269531 37.484375 120.882812 34.652344 126.027344 32.824219 C 131.175781 30.996094 135.257812 30.050781 138.273438 30.050781 C 139.632812 30.050781 140.757812 30.285156 141.527344 30.757812 C 142.355469 31.230469 142.710938 31.878906 142.710938 32.648438 C 142.710938 33.414062 142.296875 34.003906 141.40625 34.535156 C 140.519531 35.007812 139.398438 35.304688 138.035156 35.304688 C 135.90625 35.304688 133.71875 34.773438 131.410156 33.652344 C 129.105469 32.527344 127.152344 30.9375 125.554688 28.8125 C 123.957031 26.6875 123.128906 24.207031 123.128906 21.375 C 123.128906 18.070312 124.253906 14.882812 126.441406 11.699219 C 128.632812 8.511719 131.707031 5.972656 135.609375 4.027344 C 139.515625 2.078125 143.890625 1.074219 148.742188 1.074219 C 153.179688 1.074219 156.609375 1.902344 159.09375 3.613281 C 161.578125 5.324219 162.820312 7.683594 162.820312 10.636719 C 162.820312 12.9375 162.050781 14.945312 160.511719 16.714844 C 158.976562 18.484375 157.199219 19.839844 155.128906 20.785156 C 153.0625 21.730469 151.226562 22.203125 149.6875 22.203125 C 148.800781 22.203125 148.152344 22.085938 147.679688 21.789062 C 147.203125 21.492188 146.96875 21.199219 146.96875 20.785156 C 146.96875 20.433594 147.203125 20.136719 147.738281 19.960938 C 150.222656 19.074219 152.171875 17.953125 153.652344 16.535156 C 155.128906 15.121094 155.839844 13.46875 155.839844 11.460938 C 155.839844 9.277344 155.011719 7.566406 153.296875 6.328125 C 151.582031 5.089844 149.394531 4.441406 146.730469 4.441406 C 143.953125 4.441406 141.171875 5.148438 138.449219 6.503906 C 135.730469 7.921875 133.539062 9.808594 131.882812 12.289062 C 130.226562 14.765625 129.339844 17.480469 129.339844 20.433594 Z M 129.519531 20.492188 "/></g></g></g><g transform="matrix(1,0,0,1,308,221)"><g clip-path="url(#4472754b5f)"><g clip-rule="nonzero" clip-path="url(#56fd60a8d9)"><path style=" stroke:none;fill-rule:nonzero;fill:#F9FAFB;fill-opacity:1;" d="M 52.773438 33.023438 C 52.773438 29.386719 52.160156 26.027344 50.933594 22.949219 C 49.703125 19.871094 47.75 17.296875 45.183594 15.335938 C 42.613281 13.320312 39.375 12.257812 35.46875 11.980469 C 34.910156 11.980469 34.574219 11.980469 34.296875 11.980469 C 34.015625 12.035156 33.738281 12.035156 33.515625 11.980469 C 33.292969 11.921875 33.179688 11.753906 33.179688 11.53125 C 33.179688 10.691406 33.960938 9.964844 35.46875 9.234375 C 36.976562 8.5625 38.816406 8.226562 40.941406 8.226562 C 44.34375 8.226562 47.304688 9.234375 49.984375 11.195312 C 52.609375 13.152344 54.671875 15.839844 56.125 19.253906 C 57.578125 22.667969 58.300781 26.53125 58.300781 30.785156 C 58.300781 37.167969 56.738281 43.4375 53.667969 49.648438 C 50.597656 55.863281 46.355469 60.957031 41.050781 64.875 C 35.691406 68.792969 29.828125 70.75 23.464844 70.75 C 19.335938 70.75 15.480469 69.800781 12.019531 67.839844 C 8.503906 65.882812 5.710938 63.027344 3.589844 59.21875 C 1.46875 55.414062 0.410156 50.824219 0.410156 45.394531 C 0.410156 37.503906 2.417969 30.113281 6.492188 23.339844 C 10.570312 16.511719 15.707031 11.082031 21.902344 7.054688 C 28.15625 3.023438 34.296875 1.007812 40.492188 1.007812 C 43.675781 1.007812 46.242188 1.289062 48.085938 1.792969 C 49.929688 2.296875 50.878906 3.023438 50.878906 3.863281 C 50.878906 4.199219 50.820312 4.476562 50.652344 4.644531 C 50.484375 4.8125 50.261719 4.871094 49.984375 4.871094 C 49.871094 4.871094 49.480469 4.757812 48.8125 4.589844 C 47.582031 4.199219 45.851562 3.972656 43.675781 3.972656 C 37.144531 3.972656 31.113281 5.878906 25.585938 9.738281 C 20.058594 13.546875 15.648438 18.640625 12.410156 24.910156 C 9.171875 31.175781 7.554688 37.726562 7.554688 44.5 C 7.554688 49.203125 8.335938 53.230469 9.953125 56.535156 C 11.574219 59.835938 13.75 62.355469 16.597656 64.089844 C 19.390625 65.769531 22.570312 66.609375 26.089844 66.609375 C 31.058594 66.609375 35.582031 65.097656 39.65625 62.132812 C 43.730469 59.164062 46.914062 55.078125 49.257812 49.984375 C 51.601562 44.835938 52.773438 39.238281 52.773438 33.082031 Z M 143.105469 0.390625 C 149.917969 0.390625 153.546875 6.269531 153.9375 18.023438 C 154.328125 29.777344 151.703125 41.363281 146.175781 52.785156 C 140.59375 64.203125 133.558594 69.910156 125.074219 69.910156 C 122.558594 69.910156 120.269531 69.128906 118.207031 67.503906 C 116.085938 65.882812 114.410156 63.53125 113.179688 60.453125 C 111.953125 57.375 111.339844 53.679688 111.339844 49.480469 C 111.339844 44.667969 111.953125 40.023438 113.179688 35.488281 C 114.410156 30.953125 115.972656 27.316406 117.871094 24.574219 C 119.824219 21.828125 121.722656 20.429688 123.675781 20.429688 C 124.625 20.429688 125.351562 20.824219 125.855469 21.664062 C 126.355469 22.445312 126.636719 23.507812 126.636719 24.742188 C 126.636719 28.378906 125.574219 33.304688 123.398438 39.574219 C 121.21875 45.84375 118.652344 51.273438 115.695312 55.917969 L 117.535156 35.039062 L 119.488281 38.0625 C 119.042969 39.574219 118.652344 41.140625 118.484375 42.765625 C 118.261719 44.445312 118.148438 46.066406 118.148438 47.691406 C 118.148438 53.625 119.042969 58.046875 120.828125 60.957031 C 122.617188 63.867188 124.960938 65.265625 127.917969 65.265625 C 134.507812 65.265625 139.753906 60.394531 143.664062 50.65625 C 147.570312 40.917969 149.132812 31.007812 148.351562 20.992188 C 147.570312 10.972656 144.558594 5.933594 139.195312 5.933594 L 138.191406 6.101562 L 137.464844 6.214844 C 137.019531 6.214844 136.742188 5.933594 136.742188 5.316406 C 136.742188 4.644531 137.019531 3.972656 137.632812 3.191406 C 138.25 2.40625 138.972656 1.792969 139.921875 1.230469 C 140.871094 0.671875 141.933594 0.449219 143.050781 0.449219 Z M 108.210938 6.4375 C 104.304688 8.675781 100.675781 12.148438 97.382812 16.847656 C 94.089844 21.550781 91.464844 26.699219 89.511719 32.296875 C 87.554688 37.894531 86.605469 43.101562 86.605469 47.859375 C 86.605469 52.558594 87.5 56.199219 89.34375 58.886719 C 91.183594 61.515625 93.863281 62.859375 97.324219 62.859375 C 100.171875 62.859375 102.910156 62.019531 105.589844 60.285156 C 108.269531 58.550781 110.667969 56.140625 112.734375 53.007812 C 114.855469 49.871094 116.53125 46.289062 117.757812 42.261719 L 118.375 46.347656 C 117.3125 50.265625 115.527344 53.902344 113.070312 57.207031 C 110.613281 60.507812 107.765625 63.195312 104.472656 65.152344 C 101.234375 67.113281 97.882812 68.121094 94.535156 68.121094 C 91.800781 68.121094 89.34375 67.449219 87.109375 66.105469 C 84.875 64.761719 83.089844 62.746094 81.75 60.003906 C 80.410156 57.261719 79.683594 53.902344 79.683594 49.816406 C 79.683594 44.5 80.855469 38.847656 83.144531 32.746094 C 85.433594 26.644531 88.503906 21.101562 92.246094 16.007812 C 95.984375 10.972656 99.949219 7.222656 104.136719 4.871094 Z M 110.890625 2.40625 C 112.121094 2.40625 113.179688 2.6875 113.960938 3.191406 C 114.746094 3.695312 115.191406 4.421875 115.191406 5.261719 C 115.191406 6.214844 114.746094 6.996094 113.851562 7.613281 C 112.957031 8.226562 111.675781 8.5625 109.941406 8.5625 C 109.050781 8.5625 107.878906 8.453125 106.480469 8.226562 C 105.085938 8.003906 103.523438 7.726562 101.847656 7.445312 C 99 6.828125 96.433594 6.382812 94.199219 6.046875 C 91.964844 5.710938 89.675781 5.542969 87.445312 5.542969 C 83.925781 5.542969 80.855469 6.046875 78.175781 7.109375 C 75.496094 8.171875 73.429688 9.570312 71.980469 11.363281 C 70.527344 13.152344 69.804688 15.167969 69.804688 17.40625 C 69.804688 19.3125 70.359375 20.933594 71.421875 22.222656 C 72.539062 23.507812 73.933594 24.179688 75.71875 24.179688 C 77.339844 24.179688 78.792969 23.621094 80.074219 22.5 C 80.242188 22.332031 80.410156 22.222656 80.632812 22.222656 C 80.800781 22.222656 80.96875 22.332031 81.078125 22.5 C 81.191406 22.667969 81.246094 22.949219 81.246094 23.398438 C 81.246094 24.179688 80.914062 25.078125 80.242188 26.140625 C 79.574219 27.203125 78.625 28.15625 77.285156 28.882812 C 76 29.667969 74.492188 30.058594 72.761719 30.058594 C 70.027344 30.058594 67.679688 29.105469 65.78125 27.148438 C 63.828125 25.1875 62.878906 22.78125 62.878906 19.816406 C 62.878906 16.511719 63.886719 13.488281 65.839844 10.914062 C 67.792969 8.285156 70.585938 6.269531 74.269531 4.8125 C 77.898438 3.359375 82.195312 2.632812 87.054688 2.632812 C 89.0625 2.632812 91.183594 2.742188 93.417969 2.96875 C 95.652344 3.191406 97.882812 3.527344 100.230469 3.863281 C 102.460938 4.199219 104.582031 4.535156 106.480469 4.757812 C 108.378906 4.980469 110.222656 5.09375 112.066406 5.09375 L 109.105469 6.15625 L 103.523438 5.09375 C 104.582031 4.367188 105.757812 3.75 107.097656 3.246094 C 108.378906 2.6875 109.664062 2.464844 110.890625 2.464844 Z M 110.890625 2.40625 "/></g></g></g><g style="fill:#F9FAFB;fill-opacity:1;"><g transform="translate(230.739938, 351.187798)"><path style="stroke:none" d="M 43.65625 0 L 3.546875 0 L 3.546875 -47.140625 L 9.234375 -47.140625 L 9.234375 -5.34375 L 43.65625 -5.34375 Z M 43.65625 0 "/></g></g><g style="fill:#F9FAFB;fill-opacity:1;"><g transform="translate(275.545272, 351.187798)"><path style="stroke:none" d="M 9.234375 0 L 3.546875 0 L 3.546875 -47.140625 L 9.234375 -47.140625 Z M 9.234375 0 "/></g></g><g style="fill:#F9FAFB;fill-opacity:1;"><g transform="translate(288.330187, 351.187798)"><path style="stroke:none" d="M 24.0625 0.703125 C 19.488281 0.703125 15.4375 0.296875 11.90625 -0.515625 C 8.382812 -1.335938 5.347656 -2.40625 2.796875 -3.71875 L 5.46875 -8.609375 C 8.375 -7.085938 11.351562 -6.046875 14.40625 -5.484375 C 17.46875 -4.929688 20.585938 -4.65625 23.765625 -4.65625 C 28.765625 -4.65625 32.753906 -5.28125 35.734375 -6.53125 C 38.722656 -7.789062 40.21875 -9.722656 40.21875 -12.328125 L 40.21875 -12.4375 C 40.21875 -14.800781 38.765625 -16.628906 35.859375 -17.921875 C 32.953125 -19.222656 28.828125 -20.457031 23.484375 -21.625 C 19.609375 -22.476562 16.21875 -23.445312 13.3125 -24.53125 C 10.40625 -25.613281 8.144531 -27.023438 6.53125 -28.765625 C 4.925781 -30.515625 4.125 -32.785156 4.125 -35.578125 L 4.125 -35.6875 C 4.125 -39.488281 5.894531 -42.472656 9.4375 -44.640625 C 12.988281 -46.804688 17.90625 -47.890625 24.1875 -47.890625 C 26.78125 -47.890625 29.34375 -47.707031 31.875 -47.34375 C 34.414062 -46.976562 36.78125 -46.472656 38.96875 -45.828125 C 41.15625 -45.191406 43.007812 -44.445312 44.53125 -43.59375 L 41.84375 -38.828125 C 40.53125 -39.597656 38.882812 -40.253906 36.90625 -40.796875 C 34.925781 -41.347656 32.8125 -41.773438 30.5625 -42.078125 C 28.320312 -42.390625 26.117188 -42.546875 23.953125 -42.546875 C 19.566406 -42.546875 16.144531 -41.941406 13.6875 -40.734375 C 11.226562 -39.535156 10 -37.910156 10 -35.859375 L 10 -35.75 C 10 -34.625 10.425781 -33.585938 11.28125 -32.640625 C 12.132812 -31.691406 13.671875 -30.78125 15.890625 -29.90625 C 18.117188 -29.03125 21.269531 -28.148438 25.34375 -27.265625 C 29.488281 -26.367188 32.914062 -25.414062 35.625 -24.40625 C 38.34375 -23.40625 40.46875 -22.320312 42 -21.15625 C 43.53125 -19.988281 44.601562 -18.695312 45.21875 -17.28125 C 45.84375 -15.875 46.15625 -14.300781 46.15625 -12.5625 L 46.15625 -12.4375 C 46.15625 -8.09375 44.1875 -4.816406 40.25 -2.609375 C 36.320312 -0.398438 30.925781 0.703125 24.0625 0.703125 Z M 24.0625 0.703125 "/></g></g><g style="fill:#F9FAFB;fill-opacity:1;"><g transform="translate(335.634248, 351.187798)"><path style="stroke:none" d="M 28.078125 0 L 22.3125 0 L 22.3125 -41.796875 L 1.15625 -41.796875 L 1.15625 -47.140625 L 49.234375 -47.140625 L 49.234375 -41.796875 L 28.078125 -41.796875 Z M 28.078125 0 "/></g></g></g></svg>